<svg xmlns="http://www.w3.org/2000/svg" fill="#e4f0d8" width="30rem" height="30rem" viewBox="0 0 512 640" x="0px" y="0px"><title>plate-fork-spoon-dinner-love-reataurant</title><g data-name="13 copy 5"><g><path d="M446.627,36.667c-29.441-5.192-57.934,46.038-66.374,93.9-6.358,36.061,3.94,60.532,19.391,72.168L340.431,467.664a20,20,0,0,0,16,24.257l21.386,3.771a20,20,0,0,0,23.331-17.321l29.914-268.8c19.487-4.426,39.127-24,45.82-61.96C485.322,99.743,477.076,42.036,446.627,36.667Z"/><g><path d="M74.672,228.855a45.786,45.786,0,0,1-16.021-6.121A209.517,209.517,0,0,0,56.005,256,207.036,207.036,0,0,0,91.891,372.83Z"/><path d="M445.843,221.416,427.714,384.324a208.47,208.47,0,0,0,38.48-177.35A66.033,66.033,0,0,1,445.843,221.416Z"/></g><path d="M181.346,467.665,120.4,207.4l3.094-.546a30,30,0,0,0,24.335-34.753l-6.74-38.221L122.422,23.447l-15.757,2.779L125.56,133.383,114.688,135.3,95.946,29,80.189,31.782l18.742,106.3-13.826,2.438L66.422,34.561,50.665,37.339,69.348,143.295l-8.47,1.493L42.422,40.117,26.665,42.9,46.984,153.04l6.3,35.735A30,30,0,0,0,88.039,213.11l.846-.149,31.743,265.41a20,20,0,0,0,23.331,17.321l21.386-3.771A20,20,0,0,0,181.346,467.665Z"/><g><path d="M160.954,154.415a143.97,143.97,0,0,1,201.39-4.581,137.054,137.054,0,0,1,2.153-22.045,216.548,216.548,0,0,1,13.508-45.795,208.141,208.141,0,0,0-229.314.87l8.163,48.295Z"/><path d="M201.666,256.045l62.339,60.782,62.339-60.782a32,32,0,0,0-44.678-45.824L269.59,222a8,8,0,0,1-11.17,0l-12.076-11.775a31.784,31.784,0,0,0-22.328-9.088l-.416,0a32,32,0,0,0-21.934,54.91Z"/><path d="M264.005,399a143.933,143.933,0,0,1-89.636-31.3L194.1,451.961a209.066,209.066,0,0,0,132.927,2.319l17.911-80.136A143.091,143.091,0,0,1,264.005,399Z"/><path d="M264.005,383a127.2,127.2,0,0,0,86.469-33.621l31.54-141.119a71.651,71.651,0,0,1-15.538-27.75q-.54-1.758-1.01-3.555a128.012,128.012,0,0,0-199.851-3.835q-.7.843-1.394,1.7a46.1,46.1,0,0,1-24.856,43.4l28.366,121.131A127.987,127.987,0,0,0,264.005,383ZM189.637,199.625a48,48,0,0,1,67.877-.86l6.491,6.329,6.491-6.329A48,48,0,0,1,337.514,267.5L269.59,333.727a8,8,0,0,1-11.17,0L190.5,267.5A48.054,48.054,0,0,1,189.637,199.625Z"/></g></g></g></svg>